<?xml version="1.0"?>
<svg viewBox="0 0 48 48" xmlns="http://www.w3.org/2000/svg" xmlns:svg="http://www.w3.org/2000/svg" xmlns:xlink="http://www.w3.org/1999/xlink">
 <defs>
  <linearGradient id="xGUkqQbkLWprKh7CRceBic" x1="0.5" x2="0.5" y1="0" y2="1">
   <stop offset="0" stop-color="#61c1ff"/>
   <stop offset="1" stop-color="#2133f6"/>
  </linearGradient>
  <linearGradient id="xGUkqQbkLWprKh7CRceBia" x1="0" x2="1" y1="0.5" y2="0.5">
   <stop offset="0" stop-color="#84cdfa" stop-opacity="0"/>
   <stop offset="0.39" stop-color="#83ccf9" stop-opacity="0.01"/>
   <stop offset="0.53" stop-color="#7fcaf8" stop-opacity="0.04"/>
   <stop offset="0.64" stop-color="#78c5f4" stop-opacity="0.1"/>
   <stop offset="0.72" stop-color="#6fbff0" stop-opacity="0.19"/>
   <stop offset="0.79" stop-color="#62b7ea" stop-opacity="0.3"/>
   <stop offset="0.85" stop-color="#53ade2" stop-opacity="0.44"/>
   <stop offset="0.91" stop-color="#40a1d9" stop-opacity="0.61"/>
   <stop offset="0.95" stop-color="#2b93cf" stop-opacity="0.79"/>
   <stop offset="1" stop-color="#1484c4"/>
  </linearGradient>
  <linearGradient gradientTransform="matrix(1.03 0 0 1 545.848 272)" id="xGUkqQbkLWprKh7CRceBid" x1="-523" x2="-490" xlink:href="#xGUkqQbkLWprKh7CRceBia" y1="-248" y2="-248"/>
  <linearGradient gradientTransform="matrix(1.03 0 0 1 273.848 816)" id="xGUkqQbkLWprKh7CRceBie" x1="-259" x2="-226" xlink:href="#xGUkqQbkLWprKh7CRceBia" y1="-792" y2="-792"/>
  <linearGradient gradientTransform="matrix(1.03 0 0 1 -270.152 544)" id="xGUkqQbkLWprKh7CRceBif" x1="269" x2="302" xlink:href="#xGUkqQbkLWprKh7CRceBia" y1="-520" y2="-520"/>
  <linearGradient id="xGUkqQbkLWprKh7CRceBib" x1="0.5" x2="0.5" y1="0" y2="1">
   <stop offset="0" stop-color="#fff"/>
   <stop offset="0.33" stop-color="#fbfbfc"/>
   <stop offset="0.66" stop-color="#eeeef4"/>
   <stop offset="1" stop-color="#dadae6"/>
  </linearGradient>
  <linearGradient id="xGUkqQbkLWprKh7CRceBig" x1="35" x2="35" xlink:href="#xGUkqQbkLWprKh7CRceBib"/>
  <linearGradient id="xGUkqQbkLWprKh7CRceBih" x1="25" x2="25" xlink:href="#xGUkqQbkLWprKh7CRceBib"/>
 </defs>
 <g class="layer">
  <title>Layer 1</title>
  <g data-name="play or pause button" id="svg_1">
   <rect fill="url(#xGUkqQbkLWprKh7CRceBic)" height="45.8" id="svg_2" rx="3" width="45.5" x="1.2" y="1.1"/>
   <g id="svg_3" opacity="0.5">
    <rect fill="url(#xGUkqQbkLWprKh7CRceBia)" height="45.8" id="svg_4" rx="3" width="45.5" x="1.2" y="1.1"/>
    <rect fill="url(#xGUkqQbkLWprKh7CRceBid)" height="34" id="svg_5" rx="3" transform="matrix(0 -1.34706 1.33824 0 -0.272058 48.5165)" width="34" x="1.2" y="1.1"/>
    <rect fill="url(#xGUkqQbkLWprKh7CRceBie)" height="34" id="svg_6" rx="3" transform="matrix(-1.33824 0 0 -1.34706 48.3059 48.3818)" width="34" x="1.2" y="1.1"/>
    <rect fill="url(#xGUkqQbkLWprKh7CRceBif)" height="34" id="svg_7" rx="3" transform="matrix(0 1.34706 -1.33824 0 48.1721 -0.516471)" width="34" x="1.2" y="1.1"/>
   </g>
   <path d="m6.55,14.38l0,19.24a1.06,1.06 0 0 0 1.54,1.02l16.63,-9.62a1.2,1.21 0 0 0 0,-2.05l-16.63,-9.62a1.06,1.06 0 0 0 -1.54,1.02z" fill="url(#xGUkqQbkLWprKh7CRceBib)" id="svg_8"/>
   <rect fill="url(#xGUkqQbkLWprKh7CRceBig)" height="21.55" id="svg_9" rx="1" width="5.35" x="35.99" y="13.22"/>
   <rect fill="url(#xGUkqQbkLWprKh7CRceBih)" height="21.55" id="svg_10" rx="1" width="5.35" x="22.61" y="13.22"/>
  </g>
 </g>
</svg>