<?xml version="1.0" encoding="UTF-8" standalone="no"?>
<svg
   xmlns:dc="http://purl.org/dc/elements/1.1/"
   xmlns:cc="http://creativecommons.org/ns#"
   xmlns:rdf="http://www.w3.org/1999/02/22-rdf-syntax-ns#"
   xmlns:svg="http://www.w3.org/2000/svg"
   xmlns="http://www.w3.org/2000/svg"
   xmlns:sodipodi="http://sodipodi.sourceforge.net/DTD/sodipodi-0.dtd"
   xmlns:inkscape="http://www.inkscape.org/namespaces/inkscape"
   height="512px"
   width="512px"
   xml:space="preserve"
   style="enable-background:new 0 0 363 363;"
   viewBox="0 0 363 363"
   y="0px"
   x="0px"
   id="Capa_1"
   version="1.1"
   sodipodi:docname="expired-issue.svg"
   inkscape:version="0.92.4 5da689c313, 2019-01-14"><sodipodi:namedview
   pagecolor="#ffffff"
   bordercolor="#666666"
   borderopacity="1"
   objecttolerance="10"
   gridtolerance="10"
   guidetolerance="10"
   inkscape:pageopacity="0"
   inkscape:pageshadow="2"
   inkscape:window-width="1920"
   inkscape:window-height="1024"
   id="namedview8"
   showgrid="false"
   inkscape:zoom="0.4609375"
   inkscape:cx="256"
   inkscape:cy="256"
   inkscape:window-x="0"
   inkscape:window-y="28"
   inkscape:window-maximized="1"
   inkscape:current-layer="Capa_1" /><metadata
   id="metadata11"><rdf:RDF><cc:Work
       rdf:about=""><dc:format>image/svg+xml</dc:format><dc:type
         rdf:resource="http://purl.org/dc/dcmitype/StillImage" /><dc:title /></cc:Work></rdf:RDF></metadata><defs
   id="defs9" /> <g
   id="g29"
   transform="matrix(0.98805554,0,0,0.98805554,-7.2459025,-3.3015832)"><g
     id="g37"
     transform="matrix(0.73607431,0.4249727,-0.4249727,0.73607431,104.80629,-1.4105424)"
     style="fill:#aa0000"><path
       inkscape:connector-curvature="0"
       id="path8"
       d="m 303.38945,78.912998 c 9.4449,-8.263752 14.862,-20.198382 14.862,-32.744825 V 18.453814 c 9.6106,0 17.40274,-7.792153 17.40274,-17.4027349 V -16.35165 c 0,-9.610593 -7.79214,-17.402729 -17.40274,-17.402729 H 126.82143 c -9.61059,0 -17.40274,7.792136 -17.40274,17.402729 V 1.0510791 c 0,9.6105819 7.79215,17.4027349 17.40274,17.4027349 v 27.714359 c 0,12.546443 5.4171,24.481073 14.862,32.744825 l 54.7489,47.908492 v 9.50012 l -54.7489,47.91275 c -9.4449,8.2595 -14.862,20.19413 -14.862,32.74059 v 27.71436 c -9.61059,0 -17.40274,7.79212 -17.40274,17.40272 v 17.40273 c 0,9.6106 7.79215,17.40274 17.40274,17.40274 h 191.43002 c 9.6106,0 17.40274,-7.79214 17.40274,-17.40274 v -17.40273 c 0,-9.6106 -7.79214,-17.40272 -17.40274,-17.40272 v -27.71436 c 0,-12.54646 -5.4171,-24.48109 -14.862,-32.74059 l -54.74893,-47.91274 v -9.50013 z M 126.82143,-16.35165 H 318.25145 V 1.0510791 H 126.82143 Z M 318.25145,279.49476 H 126.82143 V 262.09203 H 318.25145 Z M 276.48661,79.363364 237.22424,113.71847 c -3.7941,3.297 -5.97793,8.0768 -5.98643,13.10302 v 9.50013 c 0,5.02198 2.16683,9.79753 5.94395,13.10727 l 54.74891,47.90849 c 5.66354,4.95401 8.91381,12.11309 8.91805,19.63757 v 27.71436 H 144.22414 v -27.71436 c 0.005,-7.52448 3.25452,-14.68356 8.91807,-19.63757 l 54.74892,-47.90849 c 3.78135,-3.30974 5.94819,-8.08529 5.94394,-13.10727 v -9.50013 c 0.005,-5.02198 -2.16259,-9.79753 -5.94394,-13.10302 L 168.63302,79.363364 149.59453,61.960629 c -3.47545,-4.533367 -5.36188,-10.082196 -5.37039,-15.792456 V 18.453814 h 156.62458 v 27.714359 c -0.009,5.71026 -1.89492,11.259089 -5.36612,15.792456 z"
       style="fill:#aa0000;stroke-width:1.08767056" /><path
       inkscape:connector-curvature="0"
       id="path12"
       d="m 140.40406,205.83221 h 164.26476 v 17.40273 H 140.40406 Z"
       style="fill:#aa0000;stroke-width:1.08767056" /></g><g
     id="g21"><ellipse
       style="opacity:1;fill:#ffffff;fill-opacity:1;stroke:none;stroke-width:1.48079097;stroke-miterlimit:4;stroke-dasharray:none"
       id="path17"
       cx="123.05085"
       cy="126.12711"
       rx="87.619629"
       ry="90.6959" /><path
       d="M 188.90438,169.96273 A 78.468699,78.468699 0 0 0 79.518715,60.546681 Z M 170.23583,188.61609 60.834965,79.215231 A 78.468699,78.468699 0 0 0 170.23583,188.61609 Z M 124.86978,19.718624 a 104.8779,104.8779 0 1 1 0,209.740716 104.8779,104.8779 0 0 1 0,-209.740716 z"
       id="path2"
       style="fill:#aa0000;fill-opacity:1;stroke-width:15.17769814"
       inkscape:connector-curvature="0" /></g></g></svg>