<?xml version="1.0" encoding="UTF-8" standalone="no"?>
<svg
   xmlns:dc="http://purl.org/dc/elements/1.1/"
   xmlns:cc="http://creativecommons.org/ns#"
   xmlns:rdf="http://www.w3.org/1999/02/22-rdf-syntax-ns#"
   xmlns:svg="http://www.w3.org/2000/svg"
   xmlns="http://www.w3.org/2000/svg"
   xmlns:sodipodi="http://sodipodi.sourceforge.net/DTD/sodipodi-0.dtd"
   xmlns:inkscape="http://www.inkscape.org/namespaces/inkscape"
   version="1.1"
   id="Capa_1"
   x="0px"
   y="0px"
   viewBox="0 0 363 363"
   style="enable-background:new 0 0 363 363;"
   xml:space="preserve"
   width="512px"
   height="512px"
   sodipodi:docname="review-issue.svg"
   inkscape:version="0.92.4 5da689c313, 2019-01-14"><metadata
   id="metadata11"><rdf:RDF><cc:Work
       rdf:about=""><dc:format>image/svg+xml</dc:format><dc:type
         rdf:resource="http://purl.org/dc/dcmitype/StillImage" /></cc:Work></rdf:RDF></metadata><defs
   id="defs9" /><sodipodi:namedview
   pagecolor="#ffffff"
   bordercolor="#666666"
   borderopacity="1"
   objecttolerance="10"
   gridtolerance="10"
   guidetolerance="10"
   inkscape:pageopacity="0"
   inkscape:pageshadow="2"
   inkscape:window-width="1920"
   inkscape:window-height="1052"
   id="namedview7"
   showgrid="false"
   inkscape:zoom="0.65186406"
   inkscape:cx="-403.28232"
   inkscape:cy="292.57675"
   inkscape:window-x="1920"
   inkscape:window-y="0"
   inkscape:window-maximized="1"
   inkscape:current-layer="Capa_1" /> <g
   id="g172"
   transform="matrix(0.66955974,0,0,0.66955974,10.092707,10.092295)"
   style="fill:#ff7f2a"><g
     id="g25"
     style="fill:#ff7f2a">
	<g
   id="g23"
   style="fill:#ff7f2a">
		<rect
   id="rect21"
   height="15.595"
   width="154.536"
   y="154.63"
   x="38.987"
   style="fill:#ff7f2a" />
	</g>
</g><g
     id="g31"
     style="fill:#ff7f2a">
	<g
   id="g29"
   style="fill:#ff7f2a">
		<rect
   id="rect27"
   height="15.595"
   width="184.02"
   y="217.00999"
   x="38.987"
   style="fill:#ff7f2a" />
	</g>
</g><g
     id="g37"
     style="fill:#ff7f2a">
	<g
   id="g35"
   style="fill:#ff7f2a">
		<rect
   id="rect33"
   height="15.595"
   width="218.32899"
   y="248.19901"
   x="38.987"
   style="fill:#ff7f2a" />
	</g>
</g><g
     id="g43"
     style="fill:#ff7f2a">
	<g
   id="g41"
   style="fill:#ff7f2a">
		<rect
   id="rect39"
   height="15.595"
   width="249.519"
   y="279.38901"
   x="38.987"
   style="fill:#ff7f2a" />
	</g>
</g><g
     id="g49"
     style="fill:#ff7f2a">
	<g
   id="g47"
   style="fill:#ff7f2a">
		<rect
   id="rect45"
   height="15.595"
   width="249.519"
   y="310.57901"
   x="38.987"
   style="fill:#ff7f2a" />
	</g>
</g><g
     id="g55"
     style="fill:#ff7f2a">
	<g
   id="g53"
   style="fill:#ff7f2a">
		<rect
   id="rect51"
   height="15.595"
   width="249.519"
   y="341.76901"
   x="38.987"
   style="fill:#ff7f2a" />
	</g>
</g><g
     id="g61"
     style="fill:#ff7f2a">
	<g
   id="g59"
   style="fill:#ff7f2a">
		<rect
   id="rect57"
   height="15.595"
   width="197.536"
   y="372.95901"
   x="38.987"
   style="fill:#ff7f2a" />
	</g>
</g><g
     id="g67"
     style="fill:#ff7f2a">
	<g
   id="g65"
   style="fill:#ff7f2a">
		<rect
   id="rect63"
   height="15.595"
   width="124.76"
   y="435.33899"
   x="163.74699"
   style="fill:#ff7f2a" />
	</g>
</g><g
     id="g73"
     style="fill:#ff7f2a">
	<g
   id="g71"
   style="fill:#ff7f2a">
		<path
   id="path69"
   d="m 428.518,276.128 -9.423,4.394 -20.508,-43.981 c 49.211,-33.903 68.315,-99.502 42.236,-155.43 V 81.11 C 411.75,18.764 337.373,-8.308 275.027,20.766 233.102,40.317 207.13,80.352 203.452,123.44 H 90.971 v 15.595 h 112.135 c 0.635,15.745 4.283,31.612 11.241,46.785 H 38.987 v 15.595 H 222.89 c 20.311,31.563 53.336,51.49 89.009,56.12 V 487.323 H 88.371 V 414.547 H 15.595 V 87.052 H 203.504 V 71.457 H 0 v 354.116 l 77.345,77.345 H 327.494 V 258.582 c 0.15,0.001 0.299,0.008 0.449,0.008 10.974,0 22.053,-1.457 32.956,-4.466 l 15.013,32.195 14.134,-6.59 -14.33,-30.731 c 1.594,-0.664 3.182,-1.353 4.762,-2.089 1.578,-0.736 3.128,-1.509 4.662,-2.302 l 19.821,42.507 -32.979,15.378 83.483,179.029 L 512,455.156 Z M 72.776,476.295 26.621,430.14 H 72.776 Z M 373.888,232.774 C 319.332,258.214 254.255,234.526 228.815,179.973 203.377,125.418 227.063,60.34 281.617,34.9 c 14.881,-6.939 30.54,-10.222 45.968,-10.222 41.134,0 80.604,23.35 99.104,63.023 25.439,54.555 1.752,119.635 -52.801,145.073 z m 75.938,199.754 -57.119,-122.493 28.268,-13.182 57.119,122.493 z m 6.591,14.133 28.267,-13.181 6.59,14.134 -28.267,13.181 z"
   inkscape:connector-curvature="0"
   style="fill:#ff7f2a" />
	</g>
</g><g
     id="g79"
     style="fill:#ff7f2a">
	<g
   id="g77"
   style="fill:#ff7f2a">
		
	</g>
</g><g
     id="g85"
     style="fill:#ff7f2a">
	
</g><g
     id="g87"
     style="fill:#ff7f2a">
</g><g
     id="g89"
     style="fill:#ff7f2a">
</g><g
     id="g91"
     style="fill:#ff7f2a">
</g><g
     id="g93"
     style="fill:#ff7f2a">
</g><g
     id="g95"
     style="fill:#ff7f2a">
</g><g
     id="g97"
     style="fill:#ff7f2a">
</g><g
     id="g99"
     style="fill:#ff7f2a">
</g><g
     id="g101"
     style="fill:#ff7f2a">
</g><g
     id="g103"
     style="fill:#ff7f2a">
</g><g
     id="g105"
     style="fill:#ff7f2a">
</g><g
     id="g107"
     style="fill:#ff7f2a">
</g><g
     id="g109"
     style="fill:#ff7f2a">
</g><g
     id="g111"
     style="fill:#ff7f2a">
</g><g
     id="g113"
     style="fill:#ff7f2a">
</g><g
     id="g115"
     style="fill:#ff7f2a">
</g></g></svg>