<?xml version="1.0" encoding="UTF-8" standalone="no"?>
<svg
   xmlns:dc="http://purl.org/dc/elements/1.1/"
   xmlns:cc="http://creativecommons.org/ns#"
   xmlns:rdf="http://www.w3.org/1999/02/22-rdf-syntax-ns#"
   xmlns:svg="http://www.w3.org/2000/svg"
   xmlns="http://www.w3.org/2000/svg"
   xmlns:sodipodi="http://sodipodi.sourceforge.net/DTD/sodipodi-0.dtd"
   xmlns:inkscape="http://www.inkscape.org/namespaces/inkscape"
   version="1.1"
   id="Capa_1"
   x="0px"
   y="0px"
   viewBox="0 0 363 363"
   style="enable-background:new 0 0 363 363;"
   xml:space="preserve"
   width="512px"
   height="512px"
   sodipodi:docname="waiting-issue.svg"
   inkscape:version="0.92.4 5da689c313, 2019-01-14"><metadata
   id="metadata11"><rdf:RDF><cc:Work
       rdf:about=""><dc:format>image/svg+xml</dc:format><dc:type
         rdf:resource="http://purl.org/dc/dcmitype/StillImage" /></cc:Work></rdf:RDF></metadata><defs
   id="defs9" /><sodipodi:namedview
   pagecolor="#ffffff"
   bordercolor="#666666"
   borderopacity="1"
   objecttolerance="10"
   gridtolerance="10"
   guidetolerance="10"
   inkscape:pageopacity="0"
   inkscape:pageshadow="2"
   inkscape:window-width="1920"
   inkscape:window-height="1052"
   id="namedview7"
   showgrid="false"
   inkscape:zoom="0.4609375"
   inkscape:cx="-52.067797"
   inkscape:cy="342.77966"
   inkscape:window-x="1920"
   inkscape:window-y="0"
   inkscape:window-maximized="1"
   inkscape:current-layer="Capa_1" /> <g
   id="g58"
   transform="matrix(0.69310417,0,0,0.69310417,26.22724,16.17406)"
   style="fill:#4d4d4d"><path
     id="path8"
     d="m 298.36328,204.60937 c 8.68359,-7.59765 13.66406,-18.57031 13.66406,-30.10546 v -25.48047 c 8.83594,0 16,-7.16407 16,-16 v -16 c 0,-8.83594 -7.16406,-16 -16,-16 h -176 c -8.83593,0 -16,7.16406 -16,16 v 16 c 0,8.83593 7.16407,16 16,16 v 25.48047 c 0,11.53515 4.98047,22.50781 13.66407,30.10546 l 50.33593,44.04688 v 8.73437 l -50.33593,44.05079 c -8.6836,7.59375 -13.66407,18.5664 -13.66407,30.10156 v 25.48047 c -8.83593,0 -16,7.16406 -16,16 v 16 c 0,8.83594 7.16407,16 16,16 h 176 c 8.83594,0 16,-7.16406 16,-16 v -16 c 0,-8.83594 -7.16406,-16 -16,-16 v -25.48047 c 0,-11.53516 -4.98047,-22.50781 -13.66406,-30.10156 l -50.33594,-44.05078 v -8.73438 z M 136.02734,117.02344 h 176 v 16 h -176 z m 16,32 h 144 v 25.48047 c -0.008,5.25 -1.74218,10.35156 -4.93359,14.51953 H 156.96484 c -3.19531,-4.16797 -4.92968,-9.26953 -4.9375,-14.51953 z m 160,240 h -176 v -16 h 176 z m -74.53515,-119.58203 50.33593,44.04687 c 5.20704,4.55469 8.19532,11.13672 8.19922,18.05469 v 25.48047 h -144 v -25.48047 c 0.004,-6.91797 2.99219,-13.5 8.19922,-18.05469 l 50.33594,-44.04687 c 3.47656,-3.04297 5.46875,-7.4336 5.46484,-12.05078 v -8.73438 c 0.004,-4.61719 -1.98828,-9.00781 -5.46484,-12.04687 l -36.09375,-31.58594 h 99.16016 l -36.09766,31.58594 c -3.48828,3.03125 -5.49609,7.42578 -5.50391,12.04687 v 8.73438 c 0,4.61718 1.99219,9.00781 5.46485,12.05078 z m 0,0"
     inkscape:connector-curvature="0"
     style="fill:#4d4d4d" /><path
     id="path10"
     d="m 216.02734,277.02344 h 16 v 16 h -16 z m 0,0"
     inkscape:connector-curvature="0"
     style="fill:#4d4d4d" /><path
     id="path12"
     d="m 216.02734,309.02344 h 16 v 16 h -16 z m 0,0"
     inkscape:connector-curvature="0"
     style="fill:#4d4d4d" /><path
     id="path14"
     d="m 432.02734,253.02344 c 0.0195,112.5625 -89.50781,204.71484 -202.02343,207.94922 C 117.48828,464.20703 22.816406,377.34766 16.371094,264.96875 9.921875,152.59375 94.042969,55.476562 206.1875,45.824219 l -19.14453,22.816406 12.25781,10.28125 30.85547,-36.800781 c 2.83984,-3.386719 2.40234,-8.433594 -0.98437,-11.273438 L 192.37109,0 182.11719,12.296875 203.22656,30.023438 C 82.738281,41.261719 -7.042969,146.16406 0.460938,266.94531 7.960938,387.72656 110.03906,480.71094 230.99219,476.94922 351.94531,473.1875 448.04687,374.03516 448.02734,253.02344 Z m 0,0"
     inkscape:connector-curvature="0"
     style="fill:#4d4d4d" /><path
     id="path16"
     d="m 419.10937,180.6875 15.00782,-5.54297 c -1.89844,-5.13672 -4,-10.28906 -6.33594,-15.32812 l -14.55469,6.65625 c 2.14453,4.67968 4.1211,9.45703 5.88281,14.21484 z m 0,0"
     inkscape:connector-curvature="0"
     style="fill:#4d4d4d" /><path
     id="path18"
     d="m 326.54687,53.824219 c -4.9414,-2.542969 -10,-4.914063 -15.00781,-7.039063 l -6.26172,14.71875 c 4.65625,1.984375 9.35938,4.183594 13.95703,6.550782 z m 0,0"
     inkscape:connector-curvature="0"
     style="fill:#4d4d4d" /><path
     id="path20"
     d="m 431.67578,240.77734 16,-0.9375 c -0.32812,-5.52734 -0.85547,-11.07031 -1.60156,-16.5039 l -15.86328,2.11328 c 0.66406,5.03906 1.15234,10.1914 1.46484,15.32812 z m 0,0"
     inkscape:connector-curvature="0"
     style="fill:#4d4d4d" /><path
     id="path22"
     d="m 427.62109,210.27344 15.66407,-3.28125 c -1.13672,-5.39844 -2.47266,-10.8086 -4,-16.09766 l -15.37891,4.42578 c 1.41797,4.90235 2.66406,9.92578 3.71484,14.95313 z m 0,0"
     inkscape:connector-curvature="0"
     style="fill:#4d4d4d" /><path
     id="path24"
     d="m 389.5,126.96094 12.71094,-9.70313 c -3.33594,-4.3789 -6.87891,-8.6914 -10.53516,-12.80078 l -12,10.6211 c 3.42578,3.8164 6.75391,7.8164 9.82422,11.88281 z m 0,0"
     inkscape:connector-curvature="0"
     style="fill:#4d4d4d" /><path
     id="path26"
     d="M 406.30859,152.73437 420.31641,145 c -2.66407,-4.80078 -5.53516,-9.60156 -8.53516,-14.20703 l -13.40234,8.74219 c 2.78515,4.27343 5.45703,8.6875 7.92968,13.19921 z m 0,0"
     inkscape:connector-curvature="0"
     style="fill:#4d4d4d" /><path
     id="path28"
     d="M 296.02734,40.847656 C 290.73047,39.054688 285.37891,37.464844 280.125,36.105469 l -4,15.496093 c 4.87891,1.253907 9.84766,2.734376 14.76562,4.398438 z m 0,0"
     inkscape:connector-curvature="0"
     style="fill:#4d4d4d" /><path
     id="path30"
     d="m 263.91797,32.550781 c -5.41016,-0.964843 -10.9375,-1.75 -16.41797,-2.328125 l -1.65625,15.929688 c 5.08984,0.519531 10.21484,1.246094 15.24219,2.152344 z m 0,0"
     inkscape:connector-curvature="0"
     style="fill:#4d4d4d" /><path
     id="path32"
     d="m 354.82031,71.152344 c -4.53515,-3.257813 -9.17578,-6.34375 -13.80859,-9.183594 l -8.35938,13.640625 c 4.29688,2.628906 8.61719,5.511719 12.80078,8.542969 z m 0,0"
     inkscape:connector-curvature="0"
     style="fill:#4d4d4d" /><path
     id="path34"
     d="M 380.21094,92.457031 C 376.26172,88.609375 372.125,84.871094 367.91797,81.351562 l -10.28906,12.25 c 3.91015,3.277344 7.75781,6.757818 11.44531,10.335938 z m 0,0"
     inkscape:connector-curvature="0"
     style="fill:#4d4d4d" /></g></svg>