<?xml version="1.0" encoding="UTF-8" standalone="no"?>
<svg
   xmlns:dc="http://purl.org/dc/elements/1.1/"
   xmlns:cc="http://creativecommons.org/ns#"
   xmlns:rdf="http://www.w3.org/1999/02/22-rdf-syntax-ns#"
   xmlns:svg="http://www.w3.org/2000/svg"
   xmlns="http://www.w3.org/2000/svg"
   viewBox="0 0 929.67682 180"
   height="180"
   width="929.67682"
   xml:space="preserve"
   id="svg2"
   version="1.1"><metadata
     id="metadata8"><rdf:RDF><cc:Work
         rdf:about=""><dc:format>image/svg+xml</dc:format><dc:type
           rdf:resource="http://purl.org/dc/dcmitype/StillImage" /><dc:title></dc:title></cc:Work></rdf:RDF></metadata><defs
     id="defs6"><clipPath
       id="clipPath18"
       clipPathUnits="userSpaceOnUse"><path
         id="path16"
         d="M 0,0 H 1920 V 1080 H 0 Z" /></clipPath><linearGradient
       id="linearGradient32"
       spreadMethod="pad"
       gradientTransform="matrix(1500,-1500,-1500,-1500,210,1290)"
       gradientUnits="userSpaceOnUse"
       y2="0"
       x2="1"
       y1="0"
       x1="0"><stop
         id="stop24"
         offset="0"
         style="stop-opacity:1;stop-color:#b13da3" /><stop
         id="stop26"
         offset="0.330541"
         style="stop-opacity:1;stop-color:#b13da3" /><stop
         id="stop28"
         offset="0.83431407"
         style="stop-opacity:1;stop-color:#41135f" /><stop
         id="stop30"
         offset="1"
         style="stop-opacity:1;stop-color:#41135f" /></linearGradient><clipPath
       id="clipPath72"
       clipPathUnits="userSpaceOnUse"><path
         id="path70"
         d="M 0,0 H 1920 V 1080 H 0 Z" /></clipPath><clipPath
       id="clipPath80"
       clipPathUnits="userSpaceOnUse"><path
         id="path78"
         d="M -120.478,1312.69 H 1557.15 V -404.942 H -120.478 Z" /></clipPath><clipPath
       id="clipPath84"
       clipPathUnits="userSpaceOnUse"><path
         id="path82"
         d="m -27.846,56.124 c -43.761,43.805 -43.761,114.801 0,158.58 l 918.257,918.271 c 43.778,43.763 114.774,43.763 158.58,0 43.779,-43.778 43.779,-114.789 0,-158.568 L 130.738,56.124 C 86.93,12.345 15.933,12.345 -27.846,56.124" /></clipPath><linearGradient
       id="linearGradient96"
       spreadMethod="pad"
       gradientTransform="matrix(-1487.8154,-1237.3547,-1237.3547,1487.8154,1137.9357,1116.3005)"
       gradientUnits="userSpaceOnUse"
       y2="0"
       x2="1"
       y1="0"
       x1="0"><stop
         id="stop86"
         offset="0"
         style="stop-opacity:1;stop-color:#455399" /><stop
         id="stop88"
         offset="0.18408687"
         style="stop-opacity:1;stop-color:#31216e" /><stop
         id="stop90"
         offset="0.363636"
         style="stop-opacity:1;stop-color:#31216e" /><stop
         id="stop92"
         offset="0.72813903"
         style="stop-opacity:1;stop-color:#31216e" /><stop
         id="stop94"
         offset="1"
         style="stop-opacity:1;stop-color:#cf7a8c" /></linearGradient><clipPath
       id="clipPath100"
       clipPathUnits="userSpaceOnUse"><path
         id="path98"
         d="m 34.411,-341.735 c -24.564,24.589 -24.564,64.442 0,89.016 L 549.852,262.73 c 24.575,24.566 64.426,24.566 89.016,0 24.574,-24.573 24.574,-64.434 0,-89.008 l -515.44,-515.457 c -24.591,-24.574 -64.443,-24.574 -89.017,0" /></clipPath><linearGradient
       id="linearGradient112"
       spreadMethod="pad"
       gradientTransform="matrix(-835.1499,-694.55975,-694.55975,835.1499,688.79456,253.37047)"
       gradientUnits="userSpaceOnUse"
       y2="0"
       x2="1"
       y1="0"
       x1="0"><stop
         id="stop102"
         offset="0"
         style="stop-opacity:1;stop-color:#455399" /><stop
         id="stop104"
         offset="0.18408687"
         style="stop-opacity:1;stop-color:#31216e" /><stop
         id="stop106"
         offset="0.363636"
         style="stop-opacity:1;stop-color:#31216e" /><stop
         id="stop108"
         offset="0.72813903"
         style="stop-opacity:1;stop-color:#31216e" /><stop
         id="stop110"
         offset="1"
         style="stop-opacity:1;stop-color:#cf7a8c" /></linearGradient><clipPath
       id="clipPath116"
       clipPathUnits="userSpaceOnUse"><path
         id="path114"
         d="m 1333.538,578.37 c 30.45,-30.475 35.554,-74.769 11.398,-98.937 L 838.048,-27.466 C 813.88,-51.623 769.586,-46.52 739.11,-16.067 708.65,14.392 703.546,58.696 727.713,82.862 l 506.886,506.907 c 24.185,24.165 68.479,19.062 98.939,-11.399" /></clipPath><linearGradient
       id="linearGradient128"
       spreadMethod="pad"
       gradientTransform="matrix(839.29742,665.03387,878.91949,-1017.1772,682.41968,0.7288213)"
       gradientUnits="userSpaceOnUse"
       y2="0"
       x2="1"
       y1="0"
       x1="0"><stop
         id="stop118"
         offset="0"
         style="stop-opacity:1;stop-color:#455399" /><stop
         id="stop120"
         offset="0.18408687"
         style="stop-opacity:1;stop-color:#31216e" /><stop
         id="stop122"
         offset="0.363636"
         style="stop-opacity:1;stop-color:#31216e" /><stop
         id="stop124"
         offset="0.72813903"
         style="stop-opacity:1;stop-color:#31216e" /><stop
         id="stop126"
         offset="1"
         style="stop-opacity:1;stop-color:#cf7a8c" /></linearGradient><clipPath
       id="clipPath132"
       clipPathUnits="userSpaceOnUse"><path
         id="path130"
         d="m 637.816,1286.04 c 30.45,-30.476 35.554,-74.77 11.399,-98.938 L 142.326,680.203 C 118.158,656.046 73.864,661.149 43.389,691.602 12.929,722.061 7.824,766.365 31.99,790.531 l 506.887,506.907 c 24.185,24.165 68.479,19.062 98.939,-11.398" /></clipPath><linearGradient
       id="linearGradient144"
       spreadMethod="pad"
       gradientTransform="matrix(839.29742,665.03387,878.91949,-1017.1772,-13.302134,708.39795)"
       gradientUnits="userSpaceOnUse"
       y2="0"
       x2="1"
       y1="0"
       x1="0"><stop
         id="stop134"
         offset="0"
         style="stop-opacity:1;stop-color:#455399" /><stop
         id="stop136"
         offset="0.18408687"
         style="stop-opacity:1;stop-color:#31216e" /><stop
         id="stop138"
         offset="0.363636"
         style="stop-opacity:1;stop-color:#31216e" /><stop
         id="stop140"
         offset="0.72813903"
         style="stop-opacity:1;stop-color:#31216e" /><stop
         id="stop142"
         offset="1"
         style="stop-opacity:1;stop-color:#cf7a8c" /></linearGradient><clipPath
       id="clipPath148"
       clipPathUnits="userSpaceOnUse"><path
         id="path146"
         d="m 939.348,-158.222 4.732,-4.671 613.065,613.093 -4.673,4.674 z" /></clipPath><linearGradient
       id="linearGradient158"
       spreadMethod="pad"
       gradientTransform="matrix(617.79706,0,0,-617.79706,939.34863,145.99036)"
       gradientUnits="userSpaceOnUse"
       y2="0"
       x2="1"
       y1="0"
       x1="0"><stop
         id="stop150"
         offset="0"
         style="stop-opacity:1;stop-color:#ead528" /><stop
         id="stop152"
         offset="0.490119"
         style="stop-opacity:1;stop-color:#80418c" /><stop
         id="stop154"
         offset="0.56904788"
         style="stop-opacity:1;stop-color:#80418c" /><stop
         id="stop156"
         offset="1"
         style="stop-opacity:1;stop-color:#be2e72" /></linearGradient><clipPath
       id="clipPath162"
       clipPathUnits="userSpaceOnUse"><path
         id="path160"
         d="m 617.818,447.127 4.731,-4.671 459.217,459.243 -4.672,4.675 z" /></clipPath><linearGradient
       id="linearGradient172"
       spreadMethod="pad"
       gradientTransform="matrix(463.94742,0,0,-463.94742,617.81799,674.41467)"
       gradientUnits="userSpaceOnUse"
       y2="0"
       x2="1"
       y1="0"
       x1="0"><stop
         id="stop164"
         offset="0"
         style="stop-opacity:1;stop-color:#ead528" /><stop
         id="stop166"
         offset="0.490119"
         style="stop-opacity:1;stop-color:#80418c" /><stop
         id="stop168"
         offset="0.56904788"
         style="stop-opacity:1;stop-color:#80418c" /><stop
         id="stop170"
         offset="1"
         style="stop-opacity:1;stop-color:#be2e72" /></linearGradient><clipPath
       id="clipPath176"
       clipPathUnits="userSpaceOnUse"><path
         id="path174"
         d="m -120.478,-295.515 4.673,-4.704 363.949,363.951 -4.671,4.672 z" /></clipPath><linearGradient
       id="linearGradient186"
       spreadMethod="pad"
       gradientTransform="matrix(368.62195,0,0,-368.62195,-120.47774,-115.90791)"
       gradientUnits="userSpaceOnUse"
       y2="0"
       x2="1"
       y1="0"
       x1="0"><stop
         id="stop178"
         offset="0"
         style="stop-opacity:1;stop-color:#ead528" /><stop
         id="stop180"
         offset="0.490119"
         style="stop-opacity:1;stop-color:#80418c" /><stop
         id="stop182"
         offset="0.56904788"
         style="stop-opacity:1;stop-color:#80418c" /><stop
         id="stop184"
         offset="1"
         style="stop-opacity:1;stop-color:#be2e72" /></linearGradient><clipPath
       id="clipPath190"
       clipPathUnits="userSpaceOnUse"><path
         id="path188"
         d="m 185.638,625.759 4.73,-4.704 150.23,150.288 -4.673,4.674 z" /></clipPath><linearGradient
       id="linearGradient200"
       spreadMethod="pad"
       gradientTransform="matrix(154.96126,0,0,-154.96126,185.63731,698.53583)"
       gradientUnits="userSpaceOnUse"
       y2="0"
       x2="1"
       y1="0"
       x1="0"><stop
         id="stop192"
         offset="0"
         style="stop-opacity:1;stop-color:#ead528" /><stop
         id="stop194"
         offset="0.490119"
         style="stop-opacity:1;stop-color:#80418c" /><stop
         id="stop196"
         offset="0.56904788"
         style="stop-opacity:1;stop-color:#80418c" /><stop
         id="stop198"
         offset="1"
         style="stop-opacity:1;stop-color:#be2e72" /></linearGradient></defs><g
     transform="matrix(1.3333333,0,0,-1.3333333,-827.4923,536.66659)"
     id="g10"><g
       id="g36"
       transform="matrix(2.2348034,0,0,2.2348034,695.45163,360.98848)"><path
         d="m 0,0 c -0.285,2.897 -1.335,5.055 -3.152,6.476 -1.82,1.418 -4.517,2.129 -8.095,2.129 -3.352,0 -5.879,-0.568 -7.583,-1.704 -1.703,-1.136 -2.556,-2.784 -2.556,-4.942 0,-1.818 0.667,-3.266 2.002,-4.345 1.333,-1.081 3.592,-2.015 6.775,-2.811 3.237,-0.795 6.316,-1.576 9.244,-2.345 2.925,-0.765 5.437,-1.631 7.54,-2.596 1.248,-0.57 2.413,-1.223 3.493,-1.961 1.079,-0.738 2.016,-1.648 2.811,-2.725 0.794,-1.081 1.42,-2.359 1.875,-3.834 0.454,-1.478 0.681,-3.212 0.681,-5.2 0,-3.122 -0.553,-5.806 -1.66,-8.049 -1.108,-2.245 -2.671,-4.104 -4.687,-5.582 -2.017,-1.478 -4.404,-2.568 -7.157,-3.279 -2.755,-0.71 -5.779,-1.065 -9.073,-1.065 -3.523,0 -6.731,0.384 -9.629,1.149 -2.896,0.768 -5.396,1.947 -7.497,3.538 -2.103,1.588 -3.748,3.563 -4.941,5.92 -1.193,2.356 -1.821,5.125 -1.876,8.308 h 11.418 c 0.114,-2.898 1.291,-5.184 3.536,-6.86 2.243,-1.676 5.267,-2.513 9.073,-2.513 3.521,0 6.234,0.696 8.137,2.088 1.902,1.39 2.855,3.365 2.855,5.921 0,0.852 -0.129,1.619 -0.384,2.3 -0.256,0.683 -0.711,1.321 -1.364,1.917 -0.652,0.596 -1.548,1.136 -2.683,1.619 -1.136,0.482 -2.586,0.922 -4.344,1.32 -3.524,0.795 -6.491,1.492 -8.905,2.088 -2.416,0.597 -4.614,1.348 -6.602,2.258 -3.069,1.363 -5.41,3.138 -7.029,5.326 -1.619,2.184 -2.429,5.068 -2.429,8.647 0,2.555 0.426,4.9 1.278,7.028 0.853,2.131 2.144,3.962 3.877,5.497 1.732,1.533 3.889,2.726 6.475,3.577 2.585,0.852 5.608,1.28 9.073,1.28 3.578,0 6.76,-0.456 9.543,-1.366 C 0.824,16.302 3.166,15.022 5.068,13.375 6.971,11.728 8.447,9.77 9.499,7.497 10.55,5.226 11.131,2.726 11.247,0 Z"
         style="fill:#ffffff;fill-opacity:1;fill-rule:nonzero;stroke:none"
         id="path38" /></g><g
       id="g40"
       transform="matrix(2.2348034,0,0,2.2348034,777.70283,290.15683)"><path
         d="M 0,0 C 6.76,0 10.14,4.26 10.14,12.78 10.14,21.244 6.76,25.475 0,25.475 -6.76,25.475 -10.138,21.244 -10.138,12.78 -10.138,4.26 -6.76,0 0,0 m 0,-9.285 c -3.406,0 -6.446,0.538 -9.115,1.617 -2.67,1.079 -4.929,2.584 -6.774,4.517 -1.846,1.93 -3.252,4.258 -4.216,6.986 -0.968,2.727 -1.449,5.707 -1.449,8.945 0,3.294 0.496,6.306 1.49,9.032 0.993,2.727 2.428,5.054 4.302,6.987 1.874,1.93 4.132,3.42 6.775,4.472 2.64,1.051 5.636,1.577 8.987,1.577 3.294,0 6.248,-0.526 8.861,-1.577 2.613,-1.052 4.841,-2.528 6.689,-4.431 1.844,-1.903 3.264,-4.215 4.26,-6.944 0.993,-2.725 1.491,-5.763 1.491,-9.116 0,-3.352 -0.498,-6.376 -1.491,-9.073 C 18.814,1.008 17.394,-1.307 15.55,-3.237 13.702,-5.169 11.459,-6.66 8.818,-7.71 6.177,-8.761 3.238,-9.285 0,-9.285"
         style="fill:#ffffff;fill-opacity:1;fill-rule:nonzero;stroke:none"
         id="path42" /></g><path
       d="m 834.25125,399.82981 h 24.75047 V 271.87614 h -24.75047 z"
       style="fill:#ffffff;fill-opacity:1;fill-rule:nonzero;stroke:none;stroke-width:2.2348032"
       id="path44" /><g
       id="g46"
       transform="matrix(2.2348034,0,0,2.2348034,898.61137,271.87681)"><path
         d="M 0,0 -14.995,41.92 H -2.642 L 6.134,14.229 14.994,41.92 H 26.667 L 11.587,0 Z"
         style="fill:#ffffff;fill-opacity:1;fill-rule:nonzero;stroke:none"
         id="path48" /></g><g
       id="g50"
       transform="matrix(2.2348034,0,0,2.2348034,1020.0874,327.85819)"><path
         d="M 0,0 C -0.057,1.533 -0.326,2.882 -0.81,4.048 -1.291,5.21 -1.932,6.177 -2.727,6.944 -3.521,7.71 -4.43,8.278 -5.451,8.648 c -1.024,0.368 -2.075,0.553 -3.154,0.553 -2.214,0 -4.132,-0.809 -5.751,-2.429 C -15.974,5.155 -16.897,2.897 -17.126,0 Z m -17.465,-6.987 c 0.169,-3.181 1.093,-5.708 2.77,-7.582 1.673,-1.876 3.876,-2.812 6.602,-2.812 1.817,0 3.421,0.412 4.814,1.235 1.39,0.823 2.286,1.975 2.683,3.451 H 10.82 c -1.306,-4.317 -3.578,-7.641 -6.815,-9.97 -3.238,-2.329 -7.101,-3.491 -11.587,-3.491 -13.972,0 -20.96,7.611 -20.96,22.832 0,3.238 0.455,6.163 1.364,8.777 0.907,2.612 2.229,4.857 3.962,6.73 1.731,1.874 3.847,3.308 6.349,4.303 2.496,0.993 5.365,1.492 8.603,1.492 6.475,0 11.374,-2.075 14.698,-6.22 3.322,-4.147 4.984,-10.396 4.984,-18.745 z"
         style="fill:#ffffff;fill-opacity:1;fill-rule:nonzero;stroke:none"
         id="path52" /></g><g
       id="g54"
       transform="matrix(2.2348034,0,0,2.2348034,1114.1456,271.87681)"><path
         d="m 0,0 v 25.39 c 0,3.238 -0.54,5.424 -1.617,6.56 -1.08,1.137 -2.926,1.705 -5.54,1.705 -5.737,0 -8.605,-3.21 -8.605,-9.628 V 0 h -11.075 v 41.92 h 10.565 v -6.134 c 1.306,2.385 3.038,4.187 5.197,5.408 2.158,1.222 4.941,1.833 8.348,1.833 1.989,0 3.834,-0.298 5.54,-0.893 1.705,-0.598 3.165,-1.493 4.388,-2.686 1.22,-1.193 2.186,-2.655 2.896,-4.386 0.71,-1.735 1.064,-3.736 1.064,-6.008 L 11.161,0 Z"
         style="fill:#ffffff;fill-opacity:1;fill-rule:nonzero;stroke:none"
         id="path56" /></g><g
       id="g58"
       transform="matrix(2.2348034,0,0,2.2348034,1203.0687,333.56968)"><path
         d="m 0,0 h 10.309 v -11.928 c 0,-2.216 -0.328,-4.333 -0.98,-6.346 -0.654,-2.019 -1.678,-3.808 -3.068,-5.37 -1.393,-1.562 -3.152,-2.796 -5.282,-3.705 -2.131,-0.908 -4.672,-1.362 -7.625,-1.362 -3.068,0 -5.68,0.454 -7.839,1.362 -2.16,0.909 -3.934,2.129 -5.326,3.664 -1.392,1.534 -2.401,3.321 -3.024,5.366 -0.627,2.046 -0.937,4.203 -0.937,6.475 v 37.489 h 10.906 V 14.314 H 10.309 V 6.475 h -23.175 v -17.208 c 0,-2.673 0.496,-4.731 1.49,-6.179 0.994,-1.449 2.629,-2.173 4.899,-2.173 2.216,0 3.848,0.709 4.9,2.13 1.051,1.418 1.577,3.436 1.577,6.049 z"
         style="fill:#ffffff;fill-opacity:1;fill-rule:nonzero;stroke:none"
         id="path60" /></g><g
       id="g62"
       transform="matrix(2.2348034,0,0,2.2348034,1293.1264,317.76559)"><path
         d="m 0,0 c -0.567,-0.567 -1.393,-1.022 -2.472,-1.363 -1.079,-0.34 -2.64,-0.711 -4.685,-1.109 -3.18,-0.624 -5.366,-1.419 -6.56,-2.384 -1.192,-0.968 -1.79,-2.359 -1.79,-4.174 0,-3.126 1.79,-4.687 5.369,-4.687 1.418,0 2.74,0.239 3.962,0.724 1.22,0.484 2.27,1.136 3.152,1.96 0.878,0.824 1.59,1.789 2.13,2.896 0.54,1.108 0.808,2.288 0.808,3.536 z m 0.767,-20.534 c -0.339,1.079 -0.569,2.329 -0.681,3.748 -1.308,-1.476 -3.039,-2.654 -5.198,-3.534 -2.159,-0.881 -4.659,-1.32 -7.497,-1.32 -4.828,0 -8.364,1.065 -10.609,3.193 -2.243,2.131 -3.364,4.9 -3.364,8.309 0,3.009 0.481,5.41 1.449,7.199 0.963,1.789 2.299,3.194 4.004,4.217 1.703,1.022 3.733,1.775 6.091,2.258 2.357,0.482 4.928,0.922 7.711,1.319 2.783,0.396 4.656,0.924 5.624,1.579 0.965,0.652 1.448,1.717 1.448,3.193 0,1.363 -0.639,2.429 -1.917,3.196 -1.278,0.767 -2.997,1.15 -5.155,1.15 -2.556,0 -4.389,-0.569 -5.496,-1.703 -1.108,-1.138 -1.803,-2.643 -2.086,-4.515 H -25.22 c 0.057,2.156 0.412,4.144 1.067,5.961 0.65,1.819 1.703,3.38 3.15,4.687 1.45,1.306 3.339,2.314 5.667,3.026 2.329,0.709 5.168,1.064 8.521,1.064 3.294,0 6.091,-0.369 8.391,-1.107 2.301,-0.74 4.147,-1.804 5.539,-3.197 1.391,-1.391 2.399,-3.123 3.023,-5.197 0.626,-2.072 0.937,-4.415 0.937,-7.027 v -26.499 z"
         style="fill:#ffffff;fill-opacity:1;fill-rule:nonzero;stroke:none"
         id="path64" /></g></g></svg>