<?xml version="1.0" encoding="UTF-8" standalone="no"?>
<svg
   xmlns:dc="http://purl.org/dc/elements/1.1/"
   xmlns:cc="http://creativecommons.org/ns#"
   xmlns:rdf="http://www.w3.org/1999/02/22-rdf-syntax-ns#"
   xmlns:svg="http://www.w3.org/2000/svg"
   xmlns="http://www.w3.org/2000/svg"
   viewBox="0 0 2560 1440"
   height="1440"
   width="2560"
   xml:space="preserve"
   id="svg2"
   version="1.1"><metadata
     id="metadata8"><rdf:RDF><cc:Work
         rdf:about=""><dc:format>image/svg+xml</dc:format><dc:type
           rdf:resource="http://purl.org/dc/dcmitype/StillImage" /><dc:title></dc:title></cc:Work></rdf:RDF></metadata><defs
     id="defs6"><clipPath
       id="clipPath18"
       clipPathUnits="userSpaceOnUse"><path
         id="path16"
         d="M 0,0 H 1920 V 1080 H 0 Z" /></clipPath><linearGradient
       id="linearGradient32"
       spreadMethod="pad"
       gradientTransform="matrix(1500,-1500,-1500,-1500,210,1290)"
       gradientUnits="userSpaceOnUse"
       y2="0"
       x2="1"
       y1="0"
       x1="0"><stop
         id="stop24"
         offset="0"
         style="stop-opacity:1;stop-color:#b13da3" /><stop
         id="stop26"
         offset="0.330541"
         style="stop-opacity:1;stop-color:#b13da3" /><stop
         id="stop28"
         offset="0.83431407"
         style="stop-opacity:1;stop-color:#41135f" /><stop
         id="stop30"
         offset="1"
         style="stop-opacity:1;stop-color:#41135f" /></linearGradient><clipPath
       id="clipPath72"
       clipPathUnits="userSpaceOnUse"><path
         id="path70"
         d="M 0,0 H 1920 V 1080 H 0 Z" /></clipPath><clipPath
       id="clipPath80"
       clipPathUnits="userSpaceOnUse"><path
         id="path78"
         d="M -120.478,1312.69 H 1557.15 V -404.942 H -120.478 Z" /></clipPath><clipPath
       id="clipPath84"
       clipPathUnits="userSpaceOnUse"><path
         id="path82"
         d="m -27.846,56.124 c -43.761,43.805 -43.761,114.801 0,158.58 l 918.257,918.271 c 43.778,43.763 114.774,43.763 158.58,0 43.779,-43.778 43.779,-114.789 0,-158.568 L 130.738,56.124 C 86.93,12.345 15.933,12.345 -27.846,56.124" /></clipPath><linearGradient
       id="linearGradient96"
       spreadMethod="pad"
       gradientTransform="matrix(-1487.8154,-1237.3547,-1237.3547,1487.8154,1137.9357,1116.3005)"
       gradientUnits="userSpaceOnUse"
       y2="0"
       x2="1"
       y1="0"
       x1="0"><stop
         id="stop86"
         offset="0"
         style="stop-opacity:1;stop-color:#455399" /><stop
         id="stop88"
         offset="0.18408687"
         style="stop-opacity:1;stop-color:#31216e" /><stop
         id="stop90"
         offset="0.363636"
         style="stop-opacity:1;stop-color:#31216e" /><stop
         id="stop92"
         offset="0.72813903"
         style="stop-opacity:1;stop-color:#31216e" /><stop
         id="stop94"
         offset="1"
         style="stop-opacity:1;stop-color:#cf7a8c" /></linearGradient><clipPath
       id="clipPath100"
       clipPathUnits="userSpaceOnUse"><path
         id="path98"
         d="m 34.411,-341.735 c -24.564,24.589 -24.564,64.442 0,89.016 L 549.852,262.73 c 24.575,24.566 64.426,24.566 89.016,0 24.574,-24.573 24.574,-64.434 0,-89.008 l -515.44,-515.457 c -24.591,-24.574 -64.443,-24.574 -89.017,0" /></clipPath><linearGradient
       id="linearGradient112"
       spreadMethod="pad"
       gradientTransform="matrix(-835.1499,-694.55975,-694.55975,835.1499,688.79456,253.37047)"
       gradientUnits="userSpaceOnUse"
       y2="0"
       x2="1"
       y1="0"
       x1="0"><stop
         id="stop102"
         offset="0"
         style="stop-opacity:1;stop-color:#455399" /><stop
         id="stop104"
         offset="0.18408687"
         style="stop-opacity:1;stop-color:#31216e" /><stop
         id="stop106"
         offset="0.363636"
         style="stop-opacity:1;stop-color:#31216e" /><stop
         id="stop108"
         offset="0.72813903"
         style="stop-opacity:1;stop-color:#31216e" /><stop
         id="stop110"
         offset="1"
         style="stop-opacity:1;stop-color:#cf7a8c" /></linearGradient><clipPath
       id="clipPath116"
       clipPathUnits="userSpaceOnUse"><path
         id="path114"
         d="m 1333.538,578.37 c 30.45,-30.475 35.554,-74.769 11.398,-98.937 L 838.048,-27.466 C 813.88,-51.623 769.586,-46.52 739.11,-16.067 708.65,14.392 703.546,58.696 727.713,82.862 l 506.886,506.907 c 24.185,24.165 68.479,19.062 98.939,-11.399" /></clipPath><linearGradient
       id="linearGradient128"
       spreadMethod="pad"
       gradientTransform="matrix(839.29742,665.03387,878.91949,-1017.1772,682.41968,0.7288213)"
       gradientUnits="userSpaceOnUse"
       y2="0"
       x2="1"
       y1="0"
       x1="0"><stop
         id="stop118"
         offset="0"
         style="stop-opacity:1;stop-color:#455399" /><stop
         id="stop120"
         offset="0.18408687"
         style="stop-opacity:1;stop-color:#31216e" /><stop
         id="stop122"
         offset="0.363636"
         style="stop-opacity:1;stop-color:#31216e" /><stop
         id="stop124"
         offset="0.72813903"
         style="stop-opacity:1;stop-color:#31216e" /><stop
         id="stop126"
         offset="1"
         style="stop-opacity:1;stop-color:#cf7a8c" /></linearGradient><clipPath
       id="clipPath132"
       clipPathUnits="userSpaceOnUse"><path
         id="path130"
         d="m 637.816,1286.04 c 30.45,-30.476 35.554,-74.77 11.399,-98.938 L 142.326,680.203 C 118.158,656.046 73.864,661.149 43.389,691.602 12.929,722.061 7.824,766.365 31.99,790.531 l 506.887,506.907 c 24.185,24.165 68.479,19.062 98.939,-11.398" /></clipPath><linearGradient
       id="linearGradient144"
       spreadMethod="pad"
       gradientTransform="matrix(839.29742,665.03387,878.91949,-1017.1772,-13.302134,708.39795)"
       gradientUnits="userSpaceOnUse"
       y2="0"
       x2="1"
       y1="0"
       x1="0"><stop
         id="stop134"
         offset="0"
         style="stop-opacity:1;stop-color:#455399" /><stop
         id="stop136"
         offset="0.18408687"
         style="stop-opacity:1;stop-color:#31216e" /><stop
         id="stop138"
         offset="0.363636"
         style="stop-opacity:1;stop-color:#31216e" /><stop
         id="stop140"
         offset="0.72813903"
         style="stop-opacity:1;stop-color:#31216e" /><stop
         id="stop142"
         offset="1"
         style="stop-opacity:1;stop-color:#cf7a8c" /></linearGradient><clipPath
       id="clipPath148"
       clipPathUnits="userSpaceOnUse"><path
         id="path146"
         d="m 939.348,-158.222 4.732,-4.671 613.065,613.093 -4.673,4.674 z" /></clipPath><linearGradient
       id="linearGradient158"
       spreadMethod="pad"
       gradientTransform="matrix(617.79706,0,0,-617.79706,939.34863,145.99036)"
       gradientUnits="userSpaceOnUse"
       y2="0"
       x2="1"
       y1="0"
       x1="0"><stop
         id="stop150"
         offset="0"
         style="stop-opacity:1;stop-color:#ead528" /><stop
         id="stop152"
         offset="0.490119"
         style="stop-opacity:1;stop-color:#80418c" /><stop
         id="stop154"
         offset="0.56904788"
         style="stop-opacity:1;stop-color:#80418c" /><stop
         id="stop156"
         offset="1"
         style="stop-opacity:1;stop-color:#be2e72" /></linearGradient><clipPath
       id="clipPath162"
       clipPathUnits="userSpaceOnUse"><path
         id="path160"
         d="m 617.818,447.127 4.731,-4.671 459.217,459.243 -4.672,4.675 z" /></clipPath><linearGradient
       id="linearGradient172"
       spreadMethod="pad"
       gradientTransform="matrix(463.94742,0,0,-463.94742,617.81799,674.41467)"
       gradientUnits="userSpaceOnUse"
       y2="0"
       x2="1"
       y1="0"
       x1="0"><stop
         id="stop164"
         offset="0"
         style="stop-opacity:1;stop-color:#ead528" /><stop
         id="stop166"
         offset="0.490119"
         style="stop-opacity:1;stop-color:#80418c" /><stop
         id="stop168"
         offset="0.56904788"
         style="stop-opacity:1;stop-color:#80418c" /><stop
         id="stop170"
         offset="1"
         style="stop-opacity:1;stop-color:#be2e72" /></linearGradient><clipPath
       id="clipPath176"
       clipPathUnits="userSpaceOnUse"><path
         id="path174"
         d="m -120.478,-295.515 4.673,-4.704 363.949,363.951 -4.671,4.672 z" /></clipPath><linearGradient
       id="linearGradient186"
       spreadMethod="pad"
       gradientTransform="matrix(368.62195,0,0,-368.62195,-120.47774,-115.90791)"
       gradientUnits="userSpaceOnUse"
       y2="0"
       x2="1"
       y1="0"
       x1="0"><stop
         id="stop178"
         offset="0"
         style="stop-opacity:1;stop-color:#ead528" /><stop
         id="stop180"
         offset="0.490119"
         style="stop-opacity:1;stop-color:#80418c" /><stop
         id="stop182"
         offset="0.56904788"
         style="stop-opacity:1;stop-color:#80418c" /><stop
         id="stop184"
         offset="1"
         style="stop-opacity:1;stop-color:#be2e72" /></linearGradient><clipPath
       id="clipPath190"
       clipPathUnits="userSpaceOnUse"><path
         id="path188"
         d="m 185.638,625.759 4.73,-4.704 150.23,150.288 -4.673,4.674 z" /></clipPath><linearGradient
       id="linearGradient200"
       spreadMethod="pad"
       gradientTransform="matrix(154.96126,0,0,-154.96126,185.63731,698.53583)"
       gradientUnits="userSpaceOnUse"
       y2="0"
       x2="1"
       y1="0"
       x1="0"><stop
         id="stop192"
         offset="0"
         style="stop-opacity:1;stop-color:#ead528" /><stop
         id="stop194"
         offset="0.490119"
         style="stop-opacity:1;stop-color:#80418c" /><stop
         id="stop196"
         offset="0.56904788"
         style="stop-opacity:1;stop-color:#80418c" /><stop
         id="stop198"
         offset="1"
         style="stop-opacity:1;stop-color:#be2e72" /></linearGradient></defs><g
     transform="matrix(1.3333333,0,0,-1.3333333,0,1440)"
     id="g10"><g
       id="g14"
       clip-path="url(#clipPath18)"><g
         id="g20"><g
           id="g22"><path
             d="M 0,0 H 1920 V 1080 H 0 Z"
             style="fill:url(#linearGradient32);stroke:none"
             id="path34" /></g></g></g><g
       id="g68"
       clip-path="url(#clipPath72)"><g
         id="g74"><g
           id="g76" /><g
           id="g284"><g
             clip-path="url(#clipPath80)"
             id="g282"
             style="opacity:0.39999402"><g
               id="g210"><g
                 clip-path="url(#clipPath84)"
                 id="g208"><g
                   id="g206"><g
                     id="g204"><path
                       d="m -27.846,56.124 c -43.761,43.805 -43.761,114.801 0,158.58 l 918.257,918.271 c 43.778,43.763 114.774,43.763 158.58,0 43.779,-43.778 43.779,-114.789 0,-158.568 L 130.738,56.124 C 86.93,12.345 15.933,12.345 -27.846,56.124"
                       style="fill:url(#linearGradient96);stroke:none"
                       id="path202" /></g></g></g></g><g
               id="g220"><g
                 clip-path="url(#clipPath100)"
                 id="g218"><g
                   id="g216"><g
                     id="g214"><path
                       d="m 34.411,-341.735 c -24.564,24.589 -24.564,64.442 0,89.016 L 549.852,262.73 c 24.575,24.566 64.426,24.566 89.016,0 24.574,-24.573 24.574,-64.434 0,-89.008 l -515.44,-515.457 c -24.591,-24.574 -64.443,-24.574 -89.017,0"
                       style="fill:url(#linearGradient112);stroke:none"
                       id="path212" /></g></g></g></g><g
               id="g230"><g
                 clip-path="url(#clipPath116)"
                 id="g228"><g
                   id="g226"><g
                     id="g224"><path
                       d="m 1333.538,578.37 c 30.45,-30.475 35.554,-74.769 11.398,-98.937 L 838.048,-27.466 C 813.88,-51.623 769.586,-46.52 739.11,-16.067 708.65,14.392 703.546,58.696 727.713,82.862 l 506.886,506.907 c 24.185,24.165 68.479,19.062 98.939,-11.399"
                       style="fill:url(#linearGradient128);stroke:none"
                       id="path222" /></g></g></g></g><g
               id="g240"><g
                 clip-path="url(#clipPath132)"
                 id="g238"><g
                   id="g236"><g
                     id="g234"><path
                       d="m 637.816,1286.04 c 30.45,-30.476 35.554,-74.77 11.399,-98.938 L 142.326,680.203 C 118.158,656.046 73.864,661.149 43.389,691.602 12.929,722.061 7.824,766.365 31.99,790.531 l 506.887,506.907 c 24.185,24.165 68.479,19.062 98.939,-11.398"
                       style="fill:url(#linearGradient144);stroke:none"
                       id="path232" /></g></g></g></g><g
               id="g250"><g
                 clip-path="url(#clipPath148)"
                 id="g248"><g
                   id="g246"><g
                     id="g244"><path
                       d="m 939.348,-158.222 4.732,-4.671 613.065,613.093 -4.673,4.674 z"
                       style="fill:url(#linearGradient158);stroke:none"
                       id="path242" /></g></g></g></g><g
               id="g260"><g
                 clip-path="url(#clipPath162)"
                 id="g258"><g
                   id="g256"><g
                     id="g254"><path
                       d="m 617.818,447.127 4.731,-4.671 459.217,459.243 -4.672,4.675 z"
                       style="fill:url(#linearGradient172);stroke:none"
                       id="path252" /></g></g></g></g><g
               id="g270"><g
                 clip-path="url(#clipPath176)"
                 id="g268"><g
                   id="g266"><g
                     id="g264"><path
                       d="m -120.478,-295.515 4.673,-4.704 363.949,363.951 -4.671,4.672 z"
                       style="fill:url(#linearGradient186);stroke:none"
                       id="path262" /></g></g></g></g><g
               id="g280"><g
                 clip-path="url(#clipPath190)"
                 id="g278"><g
                   id="g276"><g
                     id="g274"><path
                       d="m 185.638,625.759 4.73,-4.704 150.23,150.288 -4.673,4.674 z"
                       style="fill:url(#linearGradient200);stroke:none"
                       id="path272" /></g></g></g></g></g></g></g></g></g></svg>