<?xml version="1.0" encoding="UTF-8" standalone="no"?>
<svg
   xmlns:dc="http://purl.org/dc/elements/1.1/"
   xmlns:cc="http://creativecommons.org/ns#"
   xmlns:rdf="http://www.w3.org/1999/02/22-rdf-syntax-ns#"
   xmlns:svg="http://www.w3.org/2000/svg"
   xmlns="http://www.w3.org/2000/svg"
   xmlns:sodipodi="http://sodipodi.sourceforge.net/DTD/sodipodi-0.dtd"
   xmlns:inkscape="http://www.inkscape.org/namespaces/inkscape"
   version="1.1"
   id="Capa_1"
   x="0px"
   y="0px"
   viewBox="0 0 445.03299 445.03201"
   xml:space="preserve"
   width="445.03299"
   height="445.03201"
   sodipodi:docname="stop.svg"
   inkscape:version="0.92.4 5da689c313, 2019-01-14"><metadata
   id="metadata27"><rdf:RDF><cc:Work
       rdf:about=""><dc:format>image/svg+xml</dc:format><dc:type
         rdf:resource="http://purl.org/dc/dcmitype/StillImage" /><dc:title></dc:title></cc:Work></rdf:RDF></metadata><defs
   id="defs25" /><sodipodi:namedview
   pagecolor="#ffffff"
   bordercolor="#666666"
   borderopacity="1"
   objecttolerance="10"
   gridtolerance="10"
   guidetolerance="10"
   inkscape:pageopacity="0"
   inkscape:pageshadow="2"
   inkscape:window-width="1920"
   inkscape:window-height="1024"
   id="namedview23"
   showgrid="false"
   fit-margin-top="0"
   fit-margin-left="0"
   fit-margin-right="0"
   fit-margin-bottom="0"
   inkscape:zoom="0.921875"
   inkscape:cx="352.20937"
   inkscape:cy="69.72701"
   inkscape:window-x="0"
   inkscape:window-y="28"
   inkscape:window-maximized="1"
   inkscape:current-layer="g20" /><g
   id="g20"
   transform="translate(-33.484,-33.484)"><g
     id="g6">
	<g
   id="g4">
		<path
   d="M 413.343,98.657 C 371.316,56.629 315.437,33.484 256,33.484 196.563,33.484 140.685,56.629 98.658,98.657 56.629,140.684 33.484,196.564 33.484,256 c 0,59.437 23.145,115.315 65.174,157.343 42.028,42.028 97.907,65.173 157.342,65.173 59.435,0 115.316,-23.145 157.343,-65.173 42.029,-42.028 65.174,-97.907 65.174,-157.343 0,-59.437 -23.145,-115.316 -65.174,-157.343 z M 256,455.308 C 141.689,455.308 56.692,370.311 56.692,256 56.692,141.689 141.689,56.692 256,56.692 c 114.311,0 199.309,84.998 199.309,199.309 0,114.311 -84.998,199.307 -199.309,199.307 z"
   data-original="#000000"
   class="active-path"
   data-old_color="#000000"
   id="path2"
   inkscape:connector-curvature="0"
   style="fill:#f10707"
   sodipodi:nodetypes="cscscscscsssss" />
	</g>
</g><g
     id="g12">
	<g
   id="g10">
		
	</g>
</g><g
     id="g18">
	<g
   id="g16">
		<path
   d="M 338.376,166.02 H 173.624 c -4.199,0 -7.604,3.405 -7.604,7.604 0,4.199 3.405,7.604 7.604,7.604 H 330.772 V 330.773 H 181.228 v -155.47 c 0,-4.199 -3.405,-7.604 -7.604,-7.604 -4.199,0 -7.604,3.405 -7.604,7.604 v 163.074 c 0,4.199 3.405,7.604 7.604,7.604 h 164.752 c 4.199,0 7.604,-3.405 7.604,-7.604 V 173.624 c 0,-4.2 -3.404,-7.604 -7.604,-7.604 z"
   data-original="#000000"
   class="active-path"
   data-old_color="#000000"
   id="path14"
   inkscape:connector-curvature="0"
   style="fill:#f10707"
   sodipodi:nodetypes="sssscccsssssssss" />
	</g>
</g></g> </svg>