<?xml version="1.0" encoding="UTF-8" standalone="no"?>
<svg
   xmlns:dc="http://purl.org/dc/elements/1.1/"
   xmlns:cc="http://creativecommons.org/ns#"
   xmlns:rdf="http://www.w3.org/1999/02/22-rdf-syntax-ns#"
   xmlns:svg="http://www.w3.org/2000/svg"
   xmlns="http://www.w3.org/2000/svg"
   xmlns:sodipodi="http://sodipodi.sourceforge.net/DTD/sodipodi-0.dtd"
   xmlns:inkscape="http://www.inkscape.org/namespaces/inkscape"
   id="Layer_1"
   enable-background="new 0 0 512 512"
   height="470"
   viewBox="0 0 512 470"
   width="512"
   class=""
   version="1.1"
   sodipodi:docname="upload.svg"
   inkscape:version="0.92.4 5da689c313, 2019-01-14">
  <metadata
     id="metadata15">
    <rdf:RDF>
      <cc:Work
         rdf:about="">
        <dc:format>image/svg+xml</dc:format>
        <dc:type
           rdf:resource="http://purl.org/dc/dcmitype/StillImage" />
        <dc:title></dc:title>
      </cc:Work>
    </rdf:RDF>
  </metadata>
  <defs
     id="defs13" />
  <sodipodi:namedview
     pagecolor="#ffffff"
     bordercolor="#666666"
     borderopacity="1"
     objecttolerance="10"
     gridtolerance="10"
     guidetolerance="10"
     inkscape:pageopacity="0"
     inkscape:pageshadow="2"
     inkscape:window-width="1920"
     inkscape:window-height="1024"
     id="namedview11"
     showgrid="false"
     fit-margin-top="0"
     fit-margin-left="0"
     fit-margin-right="0"
     fit-margin-bottom="0"
     inkscape:zoom="0.921875"
     inkscape:cx="35.798395"
     inkscape:cy="88.42054"
     inkscape:window-x="0"
     inkscape:window-y="28"
     inkscape:window-maximized="1"
     inkscape:current-layer="g8" />
  <g
     id="g8"
     transform="translate(0,-41.9995)">
    <path
       d="m 72.763,224.186 c 0,21.653 17.556,39.27 39.135,39.27 21.579,0 39.135,-17.616 39.135,-39.27 0,-21.654 -17.556,-39.271 -39.135,-39.271 -21.579,-0.001 -39.135,17.616 -39.135,39.271 z m 39.135,-24.272 c 13.308,0 24.135,10.888 24.135,24.271 0,13.382 -10.827,24.27 -24.135,24.27 -13.308,0 -24.135,-10.888 -24.135,-24.27 0,-13.383 10.827,-24.271 24.135,-24.271 z"
       data-original="#000000"
       class="active-path"
       data-old_color="#000000"
       id="path2"
       inkscape:connector-curvature="0"
       style="fill:#601f6f" />
    <path
       d="M 483.782,312 V 244.803 C 501.158,228.172 512,204.719 512,178.771 c 0,-22.989 -8.543,-44.951 -24.056,-61.841 -2.803,-3.05 -7.546,-3.253 -10.597,-0.45 -3.051,2.802 -3.253,7.546 -0.451,10.597 12.964,14.114 20.104,32.474 20.104,51.694 0,42.05 -34.05,76.26 -75.904,76.26 -41.852,0 -75.902,-34.21 -75.902,-76.26 0,-42.05 34.05,-76.26 75.902,-76.26 10.399,0 20.47,2.071 29.935,6.157 3.803,1.64 8.217,-0.109 9.858,-3.913 1.642,-3.803 -0.11,-8.217 -3.913,-9.858 -11.353,-4.9 -23.424,-7.386 -35.88,-7.386 -35.864,0 -66.94,20.961 -81.721,51.319 H 13.464 C 6.04,138.831 0,144.883 0,152.321 v 300.677 c 0,7.439 6.04,13.49 13.464,13.49 h 456.854 c 7.424,0 13.464,-6.052 13.464,-13.49 V 348 Z m -15,36 V 451.488 H 15 V 153.831 h 318.644 c -1.369,4.832 -2.345,9.828 -2.903,14.948 H 122 86.999 43.285 c -7.424,0 -13.464,6.052 -13.464,13.49 v 240.78 c 0,7.439 6.04,13.49 13.464,13.49 h 397.212 c 7.424,0 13.464,-6.052 13.464,-13.49 V 263.857 c 5.188,-2.027 10.144,-4.52 14.821,-7.424 V 312 Z M 122,183.779 h 208.332 c 2.599,48.001 42.314,86.252 90.764,86.252 6.114,0 12.087,-0.613 17.866,-1.774 v 107.009 l -44.017,-62.822 c -2.323,-3.314 -5.813,-5.216 -9.575,-5.216 -3.761,10e-4 -7.251,1.902 -9.574,5.217 l -43.03,61.415 -80.673,-115.141 c -2.323,-3.314 -5.813,-5.215 -9.574,-5.215 -3.762,0 -7.251,1.9 -9.575,5.216 l -80.89,115.451 -43.249,-61.728 c -2.323,-3.314 -5.813,-5.215 -9.575,-5.215 -3.761,10e-4 -7.25,1.901 -9.574,5.217 L 44.821,376.436 V 183.779 H 86.999 Z M 44.821,421.54 v -18.963 l 54.41,-77.658 67.696,96.621 z m 140.423,0 -24.031,-34.299 81.307,-116.046 105.338,150.345 z m 253.717,0 h -72.788 l -24.25,-34.61 43.447,-62.01 53.59,76.487 v 20.133 z"
       data-original="#000000"
       class="active-path"
       data-old_color="#000000"
       id="path4"
       inkscape:connector-curvature="0"
       style="fill:#601f6f"
       sodipodi:nodetypes="ccscccsssscccsccsssssccccccccccssssssccccccscccccccscccccccccccccccccccccccccc" />
    <path
       d="m 421.096,120.275 c -3.271,0 -6.397,1.399 -8.577,3.84 l -32.318,36.181 c -3.013,3.377 -3.766,8.228 -1.917,12.357 1.851,4.132 5.97,6.802 10.497,6.802 h 11.315 v 46.316 c 0,6.341 5.159,11.5 11.5,11.5 h 19 c 6.341,0 11.5,-5.159 11.5,-11.5 v -46.316 h 11.315 c 4.526,0 8.647,-2.67 10.497,-6.803 1.849,-4.129 1.096,-8.979 -1.92,-12.359 l -32.315,-36.178 c -2.179,-2.44 -5.306,-3.84 -8.577,-3.84 z m 13.5,44.18 c -4.142,0 -7.5,3.357 -7.5,7.5 v 50.316 h -12 v -50.316 c 0,-4.143 -3.358,-7.5 -7.5,-7.5 h -10.998 l 24.498,-27.426 24.498,27.426 z"
       data-original="#000000"
       class="active-path"
       data-old_color="#000000"
       id="path6"
       inkscape:connector-curvature="0"
       style="fill:#601f6f" />
  </g>
</svg>
